Coordinates
version=1
nRows=21
nColumns=28
inDegrees=yes

Units are S.I. units (second, meters, Newtons, ...)
Angles are in degrees.

endheader
time	pelvis_tilt	pelvis_list	pelvis_rotation	pelvis_tx	pelvis_ty	pelvis_tz	hip_flexion_r	hip_adduction_r	hip_rotation_r	knee_angle_r	ankle_angle_r	subtalar_angle_r	mtp_angle_r	hip_flexion_l	hip_adduction_l	hip_rotation_l	knee_angle_l	socket_flexion	socket_adduction	socket_rotation	socket_tx	socket_ty	socket_tz	foot_flex	lumbar_extension	lumbar_bending	lumbar_rotation
      0.95000000	      3.42782568	     -4.45424872	     -2.26897911	      0.43081826	      1.03280253	      0.31440306	      0.23586624	     10.12771383	      0.65839656	    -15.06980953	     11.11121288	    -13.34490441	      1.04829304	     13.75767804	    -11.31014270	      1.58585196	    -48.42427259	      9.86858646	      7.83214345	     12.90620016	      0.06787667	      0.03425829	     -0.04334328	     -0.44712724	    -11.48414282	      3.39925500	      5.77611167
      0.95416667	      3.35934312	     -4.34889201	     -2.50225691	      0.43546298	      1.03349449	      0.31482605	     -0.16445301	      9.97017666	      0.71162050	    -14.73768448	     11.06344282	    -13.08366581	      1.09279152	     14.32841397	    -11.21968722	      1.73073882	    -48.18025522	      9.60337225	      7.92031054	     12.84727788	      0.06686295	      0.03399368	     -0.04389082	     -0.44350113	    -11.44839065	      3.23227365	      5.95041565
      0.95833333	      3.28498865	     -4.23293687	     -2.71807674	      0.44006984	      1.03416530	      0.31539095	     -0.55519115	      9.82764522	      0.77903180	    -14.39365174	     11.00888818	    -12.80467640	      1.14226901	     14.88451420	    -11.11858529	      1.88422674	    -47.90587643	      9.31500889	      7.98530280	     12.78455683	      0.06567485	      0.03358122	     -0.04424431	     -0.43757644	    -11.40886969	      3.08717531	      6.13430486
      0.96250000	      3.21381766	     -4.13568561	     -2.94690705	      0.44468738	      1.03476253	      0.31582703	     -0.94186203	      9.68050520	      0.82559971	    -14.07883194	     10.95885808	    -12.55094470	      1.18957912	     15.41741511	    -11.04518278	      2.02076499	    -47.61913826	      9.01691741	      8.03766873	     12.71935977	      0.06443342	      0.03314899	     -0.04478239	     -0.43224458	    -11.37882854	      2.96376928	      6.29999829
      0.96666667	      3.11671189	     -4.05314962	     -3.14906303	      0.44931720	      1.03529480	      0.31619261	     -1.31790054	      9.55125328	      0.90398599	    -13.71721621	     10.88756458	    -12.23750844	      1.25280374	     15.93973915	    -10.94080431	      2.18355184	    -47.29028035	      8.68159822	      8.07661605	     12.64829955	      0.06308568	      0.03241081	     -0.04480897	     -0.42392208	    -11.32496661	      2.82065459	      6.50292602
      0.97083333	      3.10738070	     -4.03571947	     -3.42724739	      0.45362671	      1.03581928	      0.31657506	     -1.61417727	      9.47339047	      0.84270692	    -13.68519816	     10.88744511	    -12.20380107	      1.26179893	     16.39066692	    -10.91964817	      2.22811896	    -46.97241442	      8.37713140	      8.04020132	     12.61781689	      0.06196518	      0.03182905	     -0.04478994	     -0.38591722	    -11.43179374	      2.82660058	      6.53179973
      0.97500000	      2.98659665	     -3.90477998	     -3.57932488	      0.45847525	      1.03631581	      0.31708504	     -2.08674317	      9.31601910	      1.02341644	    -13.09421606	     10.79581360	    -11.76274403	      1.33313964	     16.93708738	    -10.83121235	      2.41245376	    -46.61862148	      8.01596732	      8.09585027	     12.56732012	      0.06042046	      0.03142340	     -0.04532414	     -0.41412731	    -11.27974501	      2.59290925	      6.77358052
      0.97916667	      2.96958061	     -3.89814336	     -3.84293947	      0.46274192	      1.03674599	      0.31738536	     -2.36764919	      9.23963908	      0.96746718	    -13.06606853	     10.79065555	    -11.72676395	      1.34235051	     17.37840453	    -10.81504465	      2.45833033	    -46.27538502	      7.69384296	      8.02743653	     12.53122176	      0.05917182	      0.03080093	     -0.04519928	     -0.37107357	    -11.39442912	      2.60851835	      6.80622915
      0.98333333	      2.81359803	     -3.80089149	     -4.00038171	      0.46770607	      1.03713682	      0.31777610	     -2.81952687	      9.10460240	      1.14853639	    -12.44605999	     10.66288489	    -11.24087709	      1.42826948	     17.84085847	    -10.71632796	      2.62805909	    -45.84128210	      7.26841832	      8.01700956	     12.44312668	      0.05719021	      0.02979215	     -0.04520403	     -0.38950690	    -11.19660175	      2.43624346	      7.09611574
      0.98750000	      2.80439121	     -3.79579900	     -4.25542678	      0.47193675	      1.03747915	      0.31811198	     -3.09870231	      9.03360439	      1.09415509	    -12.43564964	     10.65875192	    -11.20940329	      1.43860545	     18.27703827	    -10.71321622	      2.67371503	    -45.48596978	      6.93614714	      7.93432393	     12.40356776	      0.05594538	      0.02932901	     -0.04509905	     -0.34665631	    -11.31015459	      2.44206313	      7.12518841
      0.99166667	      2.65739735	     -3.71203748	     -4.42460440	      0.47694785	      1.03776801	      0.31851360	     -3.54917191	      8.90622356	      1.25629714	    -11.84326200	     10.56817274	    -10.77104017	      1.52547988	     18.68920848	    -10.64982065	      2.80555805	    -45.01911704	      6.48759619	      7.89789919	     12.33415322	      0.05381512	      0.02827740	     -0.04514492	     -0.37807739	    -11.10016661	      2.30183148	      7.38025342
      0.99583333	      2.63742714	     -3.71788624	     -4.65679118	      0.48110343	      1.03801925	      0.31883528	     -3.80854271	      8.85165592	      1.21167720	    -11.83950233	     10.56074707	    -10.73782499	      1.53657485	     19.11846720	    -10.65134936	      2.85129655	    -44.63407295	      6.13331562	      7.78526669	     12.29417476	      0.05246138	      0.02776568	     -0.04485105	     -0.32775905	    -11.23528299	      2.30047921	      7.40907394
      1.00000000	      2.48103374	     -3.66121922	     -4.82748387	      0.48615650	      1.03821408	      0.31909882	     -4.24398403	      8.73929168	      1.37307517	    -11.26449465	     10.47593894	    -10.31845875	      1.62573275	     19.45101502	    -10.59001741	      2.95839559	    -44.10341882	      5.64190326	      7.67812162	     12.23262578	      0.04997943	      0.02634508	     -0.04459837	     -0.35206746	    -11.01607372	      2.24352600	      7.66076256
      1.00416667	      2.46374131	     -3.67839461	     -5.04796646	      0.49027948	      1.03837719	      0.31948057	     -4.50028666	      8.70381559	      1.33126400	    -11.26649853	     10.46677397	    -10.28513683	      1.63748753	     19.87449981	    -10.60574688	      2.99935055	    -43.70883486	      5.27960213	      7.55350558	     12.18479853	      0.04861978	      0.02592503	     -0.04414630	     -0.30083493	    -11.15207539	      2.21384937	      7.68569412
      1.00833333	      2.32975435	     -3.59773441	     -5.35416803	      0.49533365	      1.03855224	      0.32002643	     -4.93310966	      8.55026484	      1.54888736	    -10.73743645	     10.22845136	     -9.70534432	      1.84318922	     19.98084792	    -10.60137002	      3.08586993	    -43.08790746	      4.67086510	      7.54203035	     11.98283194	      0.04504888	      0.02392945	     -0.04423803	     -0.28047729	    -10.96142199	      2.06822642	      8.12657017
      1.01250000	      2.26586134	     -3.62976677	     -5.49963102	      0.49976782	      1.03862223	      0.32013070	     -5.23135668	      8.52417478	      1.56533562	    -10.59331827	     10.29619518	     -9.61831198	      1.92034172	     20.28840290	    -10.56306404	      3.16385942	    -42.57383175	      4.22336987	      7.31838631	     11.95870815	      0.04285755	      0.02268123	     -0.04323185	     -0.28855951	    -10.99122365	      2.12944172	      8.22694958
      1.01666667	      2.16958551	     -3.63096145	     -5.68242410	      0.50454321	      1.03863716	      0.32046472	     -5.61639698	      8.47161601	      1.62679892	    -10.22941636	     10.29627500	     -9.40229102	      2.01313877	     20.57544085	    -10.57416108	      3.20686467	    -42.04778463	      3.74590592	      7.15178218	     11.88776016	      0.04051960	      0.02158080	     -0.04273079	     -0.28567049	    -10.90166919	      2.09627351	      8.35636361
      1.02083333	      2.15382158	     -3.65483976	     -5.87209574	      0.50860310	      1.03861721	      0.32078900	     -5.86612977	      8.44231681	      1.59587664	    -10.23870409	     10.29313705	     -9.37791397	      2.02487946	     20.98993798	    -10.60084267	      3.24821069	    -41.63221875	      3.37017907	      6.99129349	     11.84528539	      0.03913064	      0.02135066	     -0.04225292	     -0.23612384	    -11.04010236	      2.06800096	      8.37060088
      1.02500000	      2.00533640	     -3.63112620	     -6.08358911	      0.51378082	      1.03857759	      0.32117024	     -6.33181753	      8.35760036	      1.81736233	     -9.63404201	     10.14463014	     -8.95048846	      2.18525707	     21.07563767	    -10.62117249	      3.25884244	    -40.96082761	      2.76005952	      6.82891686	     11.75968211	      0.03541547	      0.01933731	     -0.04172390	     -0.24951782	    -10.83396223	      2.03402969	      8.62260304
      1.02916667	      1.98592872	     -3.67028566	     -6.25714525	      0.51783019	      1.03846362	      0.32146166	     -6.57262004	      8.34222888	      1.78317848	     -9.65652979	     10.15374539	     -8.94058526	      2.19882983	     21.47463373	    -10.65005309	      3.30212639	    -40.52849092	      2.37583404	      6.62775871	     11.71485947	      0.03400510	      0.01911147	     -0.04107814	     -0.20291478	    -10.97407819	      2.01577488	      8.63675812
      1.03333333	      1.83703054	     -3.71600245	     -6.40427097	      0.52304259	      1.03828960	      0.32168310	     -7.02007768	      8.34102615	      1.91609770	     -9.11503166	     10.13362391	     -8.66562198	      2.33259977	     21.56058746	    -10.66104070	      3.27137944	    -39.85011978	      1.78408297	      6.34281742	     11.63332187	      0.03046214	      0.01701052	     -0.03968991	     -0.24341200	    -10.76700321	      2.08220889	      8.82567955
